name Walk8.mot
datacolumns 19
datarows 22
range 2.78500000 2.89000000
endheader

                time	   L_ground_force_vx	   L_ground_force_vy	   L_ground_force_vz	   L_ground_force_px	   L_ground_force_py	   L_ground_force_pz	   R_ground_force_vx	   R_ground_force_vy	   R_ground_force_vz	   R_ground_force_px	   R_ground_force_py	   R_ground_force_pz	   L_ground_torque_x	   L_ground_torque_y	   L_ground_torque_z	   R_ground_torque_x	   R_ground_torque_y	   R_ground_torque_z	
          2.78500000	         -4.98570808	        102.42297269	         -6.94269370	         -0.05495708	          0.00000000	          0.00722184	         -0.00000000	         -0.00000000	         -0.00000000	         -0.00000000	          0.00000000	         -0.00000000	          0.00000000	          0.28138888	          0.00000000	          0.00000000	          0.00000000	          0.00000000	
          2.79000000	         -9.85465862	        148.27642486	         -9.92499805	         -0.12010335	          0.00000000	          0.01538521	         -0.00000000	         -0.00000001	         -0.00000000	         -0.00000000	          0.00000000	         -0.00000000	          0.00000000	          0.40454517	          0.00000000	          0.00000000	          0.00000000	          0.00000000	
          2.79500000	        -15.79365322	        194.57478738	        -13.17977504	         -0.17706842	          0.00000000	          0.02258796	          0.00000000	         -0.00000001	         -0.00000000	         -0.00000000	          0.00000000	         -0.00000000	          0.00000000	          0.53631708	          0.00000000	          0.00000000	         -0.00000000	          0.00000000	
          2.80000000	        -22.78633377	        239.26087577	        -16.49856763	         -0.22406610	          0.00000000	          0.02859341	          0.00000000	         -0.00000002	         -0.00000000	         -0.00000000	          0.00000000	         -0.00000000	          0.00000000	          0.67035480	          0.00000000	          0.00000000	         -0.00000000	          0.00000000	
          2.80500000	        -30.67401585	        281.12229197	        -19.57936783	         -0.26072504	          0.00000000	          0.03332692	          0.00000000	         -0.00000003	         -0.00000000	         -0.00000000	          0.00000000	         -0.00000000	          0.00000000	          0.79863104	          0.00000000	          0.00000000	         -0.00000000	          0.00000000	
          2.81000000	        -39.17938516	        319.69127463	        -22.09929692	         -0.28760857	          0.00000000	          0.03682639	          0.00000000	         -0.00000004	         -0.00000000	         -0.00000000	          0.00000000	         -0.00000000	          0.00000000	          0.91141276	          0.00000000	          0.00000000	         -0.00000000	          0.00000000	
          2.81500000	        -48.02513589	        355.08228431	        -23.78793140	         -0.30583234	          0.00000000	          0.03920267	          0.00000000	         -0.00000005	         -0.00000000	         -0.00000000	          0.00000000	         -0.00000000	          0.00000000	          0.99842081	          0.00000000	          0.00000000	         -0.00000000	          0.00000000	
          2.82000000	        -57.07410531	        387.81871670	        -24.47037204	         -0.31677811	          0.00000000	          0.04061237	          0.00000000	         -0.00000006	         -0.00000000	         -0.00000000	          0.00000000	         -0.00000000	          0.00000000	          1.05132369	          0.00000000	          0.00000000	         -0.00000000	          0.00000000	
          2.82500000	        -66.37343795	        418.61905090	        -24.08998861	         -0.32189217	          0.00000000	          0.04123783	          0.00000001	         -0.00000007	         -0.00000000	         -0.00000000	          0.00000000	         -0.00000000	          0.00000000	          1.06578573	          0.00000000	          0.00000000	         -0.00000000	          0.00000000	
          2.83000000	        -76.05575717	        448.19069197	        -22.70943594	         -0.32256326	          0.00000000	          0.04126705	          0.00000001	         -0.00000007	         -0.00000000	         -0.00000000	          0.00000000	         -0.00000000	          0.00000000	          1.04269692	          0.00000000	          0.00000000	         -0.00000000	          0.00000000	
          2.83500000	        -86.18143140	        477.07640511	        -20.50512832	         -0.32004845	          0.00000000	          0.04088171	          0.00000001	         -0.00000007	         -0.00000000	         -0.00000000	          0.00000000	         -0.00000000	          0.00000000	          0.99020032	          0.00000000	          0.00000000	         -0.00000000	          0.00000000	
          2.84000000	        -96.63767443	        505.58325103	        -17.74662831	         -0.31542993	          0.00000000	          0.04024568	          0.00000001	         -0.00000006	         -0.00000000	         -0.00000000	          0.00000000	         -0.00000000	          0.00000000	          0.92345328	          0.00000000	          0.00000000	         -0.00000000	          0.00000000	
          2.84500000	       -107.14572623	        533.77978591	        -14.72372913	         -0.30960135	          0.00000000	          0.03949226	          0.00000001	         -0.00000003	         -0.00000000	          0.00000000	          0.00000000	          0.00000000	          0.00000000	          0.86154010	          0.00000000	          0.00000000	         -0.00000000	          0.00000000	
          2.85000000	       -117.35107880	        561.56443974	        -11.67867434	         -0.30326778	          0.00000000	          0.03872136	          0.00000001	          0.00000001	         -0.00000000	          0.00000000	          0.00000000	          0.00000000	          0.00000000	          0.82243482	          0.00000000	          0.00000000	         -0.00000000	          0.00000000	
          2.85500000	       -126.91310227	        588.74035011	         -8.76201425	         -0.29695437	          0.00000000	          0.03800106	          0.00000001	          0.00000008	         -0.00000000	          0.00000000	          0.00000000	          0.00000000	          0.00000000	          0.81753643	          0.00000000	          0.00000000	         -0.00000000	          0.00000000	
          2.86000000	       -135.54437699	        615.07696902	         -5.99903513	         -0.29102320	          0.00000000	          0.03737071	          0.00000001	          0.00000017	          0.00000000	          0.00000000	          0.00000000	          0.00000000	          0.00000000	          0.84870625	          0.00000000	          0.00000000	         -0.00000000	          0.00000000	
          2.86500000	       -143.01920465	        640.37611332	         -3.32033856	         -0.28569997	          0.00000000	          0.03684547	         -0.00000000	          0.00000030	          0.00000000	          0.00000000	          0.00000000	          0.00000000	          0.00000000	          0.91110449	          0.00000000	          0.00000000	          0.00000000	          0.00000000	
          2.87000000	       -149.17240880	        664.50140674	         -0.65041200	         -0.28110255	          0.00000000	          0.03642418	         -0.00000001	          0.00000046	          0.00000001	          0.00000000	          0.00000000	          0.00000000	          0.00000000	          0.99980743	          0.00000000	          0.00000000	          0.00000000	          0.00000000	
          2.87500000	       -153.89591668	        687.36128081	          2.03384809	         -0.27726775	          0.00000000	          0.03609803	         -0.00000002	          0.00000065	          0.00000001	          0.00000000	          0.00000000	          0.00000000	          0.00000000	          1.11236879	          0.00000000	          0.00000000	          0.00000001	          0.00000000	
          2.88000000	       -157.13384869	        708.88988640	          4.71692417	         -0.27417586	          0.00000000	          0.03585514	         -0.00000004	          0.00000087	          0.00000002	          0.00000000	          0.00000000	          0.00000000	          0.00000000	          1.24674588	          0.00000000	          0.00000000	          0.00000001	          0.00000000	
          2.88500000	       -158.88227019	        729.04648994	          7.38045261	         -0.27176942	          0.00000000	          0.03568235	         -0.00000006	          0.00000110	          0.00000002	          0.00000000	          0.00000000	          0.00000000	          0.00000000	          1.39857965	          0.00000000	          0.00000000	          0.00000001	          0.00000000	
          2.89000000	       -159.19153643	        747.80937299	         10.00436301	         -0.26996816	          0.00000000	          0.03556531	         -0.00000009	          0.00000133	          0.00000003	          0.00000000	          0.00000000	          0.00000000	          0.00000000	          1.56192164	          0.00000000	          0.00000000	          0.00000002	          0.00000000	
